# xmcd
#
# Track frame offsets: 
#        150
#        13232
#        31487
#        46582
#        64738
#        80013
#        91330
#        104394
#        125551
#        136093
#        149592
#        165007
#        181808
#
# Disc length: 2624 seconds
#
# Revision: 2
# Processed by: cddbd v1.5.2PL0 Copyright (c) Steve Scherf et al.
# Submitted via: ExactAudioCopyFreeDBPlugin 1.0
#
DISCID=a50a3e0d
DTITLE=The Isaacs - Why Can't We
DYEAR=2011
DGENRE=Gospel
TTITLE0=Hallelujah Turnpike
TTITLE1=Waiting in the Water
TTITLE2=Four Men Walkin' Around
TTITLE3=Why Can't We
TTITLE4=God Still Has a Plan
TTITLE5=You Can't Take My Joy
TTITLE6=Why
TTITLE7=I Still Trust You
TTITLE8=He Knows All About It
TTITLE9=Get on Board
TTITLE10=That Is Why I Sing
TTITLE11=I'm Gonna Love You Through It
TTITLE12=I Believe in a Hill Called Mount Calvary
EXTD=
EXTT0=
EXTT1=
EXTT2=
EXTT3=
EXTT4=
EXTT5=
EXTT6=
EXTT7=
EXTT8=
EXTT9=
EXTT10=
EXTT11=
EXTT12=
PLAYORDER=
